<?xml version="1.0" encoding="utf-8"?>
<!-- Generator: Adobe Illustrator 15.1.0, SVG Export Plug-In . SVG Version: 6.00 Build 0)  -->
<!DOCTYPE svg PUBLIC "-//W3C//DTD SVG 1.1//EN" "http://www.w3.org/Graphics/SVG/1.1/DTD/svg11.dtd">
<svg version="1.1" id="Ebene_1" xmlns="http://www.w3.org/2000/svg" xmlns:xlink="http://www.w3.org/1999/xlink" x="0px" y="0px"
	 width="324.667px" height="161.333px" viewBox="0 0 324.667 161.333" enable-background="new 0 0 324.667 161.333"
	 xml:space="preserve">
<g>
	<g id="Auto_3_">
		<g>
			<path d="M220.621,90.497c1.311-2.7,3.025-5.222,5.336-7.294c1.154-1.03,2.5-1.916,4.039-2.469
				c1.537-0.557,3.283-0.707,4.934-0.363c1.658,0.332,3.158,1.118,4.463,2.056c1.307,0.944,2.447,2.063,3.471,3.229
				c1.998,2.299,3.791,4.593,5.615,7.053l-0.086-0.117c-0.072-0.091-0.158-0.178-0.252-0.251c-0.1-0.077-0.211-0.138-0.227-0.146
				c-0.068-0.043-0.189-0.087-0.23-0.099c-0.061-0.023-0.133-0.034-0.127-0.035c-0.035-0.007,0.008-0.003,0.049-0.006
				c0.086-0.001,0.221-0.008,0.357-0.02c0.279-0.022,0.59-0.059,0.9-0.101c0.627-0.085,1.271-0.191,1.918-0.304l3.906-0.731
				c2.613-0.509,5.232-1.059,7.848-1.62l15.707-3.411c5.229-1.18,10.479-2.273,15.724-3.399l7.885-1.605l7.896-1.55l-1.361,1.266
				c0.574-1.669,1.23-3.202,2.023-4.768c0.4-0.776,0.836-1.546,1.363-2.308c0.535-0.755,1.121-1.511,2.031-2.185
				c0.455-0.327,1.027-0.649,1.76-0.77c0.725-0.137,1.566,0.049,2.137,0.394c1.166,0.708,1.658,1.612,2.109,2.427
				c0.439,0.847,0.725,1.637,1.016,2.453c0.281,0.817,0.52,1.65,0.715,2.489c0.787,3.365,0.834,6.8,0.551,10.141l-0.029,0.313
				c-0.02,0.165,0,0.053-0.039,0.265c-0.039,0.15-0.066,0.302-0.264,0.551c-0.115,0.132-0.281,0.265-0.5,0.327
				c-0.209,0.066-0.406,0.045-0.529,0.02c-0.275-0.066-0.359-0.145-0.467-0.208c-0.18-0.13-0.275-0.232-0.373-0.334
				c-0.348-0.389-0.578-0.735-0.82-1.092c-0.471-0.706-0.898-1.406-1.334-2.098c-0.432-0.69-0.873-1.369-1.342-1.997
				c-0.232-0.313-0.475-0.615-0.713-0.86c-0.115-0.118-0.244-0.229-0.313-0.269c-0.033-0.025-0.047-0.015,0.033-0.004
				c0.076,0.023,0.295-0.047,0.354-0.125l0.174-0.248c-0.934,2.08-1.643,4.294-1.939,6.54c-0.283,2.24-0.141,4.541,0.734,6.534
				l-0.082-0.145c0.969,1.343,2.168,2.548,3.402,3.772c0.309,0.313,0.617,0.622,0.936,0.984c0.16,0.2,0.316,0.346,0.51,0.735
				c0.043,0.112,0.115,0.24,0.107,0.547c-0.006,0.139-0.021,0.212-0.035,0.291c-0.031,0.151-0.064,0.276-0.1,0.4
				c-0.299,0.953-0.709,1.792-1.334,2.605c-0.316,0.398-0.697,0.788-1.209,1.095c-0.504,0.308-1.193,0.5-1.852,0.406
				c-1.336-0.217-2.117-1.058-2.746-1.772c-1.213-1.418-2.098-3.063-2.859-4.66l1.422,0.636
				c-9.895,3.433-19.721,7.082-29.581,10.596l-14.779,5.276c-4.91,1.767-9.854,3.539-14.611,5.47
				c-0.59,0.242-1.174,0.489-1.732,0.74l-0.795,0.375l-0.324,0.172c-0.072,0.037-0.188,0.124-0.051,0.025l0.074-0.063
				c0.031-0.028,0.123-0.116,0.174-0.18c-0.014,0.023,0.127-0.164,0.096-0.123l-0.018,0.024l-0.035,0.051
				c-0.049,0.068-0.104,0.145-0.098,0.146l-0.129,0.227c-0.113,0.209-0.232,0.458-0.35,0.716c-0.238,0.529-0.477,1.111-0.717,1.708
				c-0.955,2.407-1.988,4.976-3.299,7.428c-0.654,1.23-1.375,2.44-2.184,3.602c-0.785,1.149-1.752,2.354-2.787,3.393
				c-2.094,2.089-4.703,3.946-8,4.683c-1.631,0.354-3.424,0.368-5.102-0.066c-1.678-0.432-3.191-1.256-4.453-2.246
				c-2.525-2.005-4.164-4.541-5.457-7.04c-1.328-2.667-2.115-5.274-2.838-7.865c-0.695-2.59-1.295-5.148-1.906-7.693l-1.068-4.443
				l4.182,1.65c2.475,0.977,4.975,1.938,7.471,2.871c2.49,0.94,4.996,1.879,7.473,2.688l0.463,0.147l0.057,0.019
				c-0.037-0.01,0.104,0.027-0.078-0.02l0.016,0.004l0.029,0.008l0.063,0.016l-0.053-0.013c-0.125-0.017-0.066-0.005-0.074-0.006
				c0.037,0.012,0.232-0.004,0.42-0.053c0.393-0.096,0.838-0.299,1.184-0.538c0.354-0.237,0.604-0.522,0.695-0.712
				c0.029-0.059,0.033-0.066,0.061-0.152l0.125-0.487l0.254-0.977c0.68-2.598,1.355-5.181,1.965-7.768
				c0.6-2.586,1.178-5.177,1.539-7.751c0.088-0.643,0.16-1.284,0.205-1.916c0.063-0.369-0.072-0.855-0.291-1.41
				c-0.439-1.059-1.141-2.224-1.891-2.97c-0.852-0.73-2.051-1.46-3.17-2.104c-1.146-0.654-2.328-1.27-3.521-1.864
				c-2.395-1.175-4.824-2.313-7.279-3.389l-0.252-0.11L220.621,90.497z M221.236,90.486c2.469,0.771,4.918,1.597,7.332,2.548
				c1.258,0.492,2.51,1.009,3.752,1.577c1.256,0.594,2.439,1.134,3.717,2.04c1.244,1.055,2.035,2.191,2.736,3.55
				c0.168,0.343,0.322,0.702,0.447,1.106c0.061,0.203,0.117,0.414,0.152,0.654c0.045,0.271,0.047,0.557,0.045,0.703
				c0.002,0.708-0.027,1.405-0.07,2.098c-0.186,2.765-0.586,5.458-1.053,8.129c-0.465,2.67-0.992,5.318-1.514,7.949l-0.195,0.985
				l-0.1,0.493c-0.051,0.24-0.141,0.555-0.248,0.803c-0.439,1.051-1.143,1.779-1.859,2.338c-0.732,0.558-1.506,0.964-2.402,1.243
				c-0.455,0.135-0.928,0.248-1.559,0.255c-0.178-0.004-0.287,0.001-0.576-0.043l-0.238-0.044l-0.219-0.055l-0.504-0.135
				c-5.297-1.483-10.346-3.241-15.447-5.048l3.113-2.793c0.697,2.526,1.379,5.047,2.127,7.493c0.736,2.432,1.539,4.847,2.596,6.853
				c1.129,2.118,2.508,4.024,4.137,5.252c1.633,1.229,3.365,1.645,5.215,1.259c1.855-0.39,3.756-1.614,5.342-3.211
				c1.586-1.57,2.902-3.628,4.125-5.755c1.209-2.145,2.191-4.422,3.223-6.858c0.262-0.613,0.531-1.238,0.846-1.896
				c0.162-0.333,0.332-0.672,0.539-1.035c0.111-0.187,0.207-0.357,0.381-0.612l0.184-0.256l0.189-0.243
				c0.08-0.093,0.199-0.213,0.26-0.268l0.17-0.143c0.393-0.302,0.564-0.376,0.777-0.499c0.201-0.108,0.373-0.191,0.549-0.276
				c0.346-0.163,0.67-0.305,0.992-0.441c0.643-0.272,1.27-0.521,1.896-0.763c9.967-3.707,19.904-6.878,29.928-10.02
				c10.015-3.113,20.103-5.978,30.149-8.975l1.029-0.307l0.391,0.943c0.648,1.563,1.355,3.041,2.34,4.316
				c0.443,0.606,0.998,1.084,1.412,1.153c0.373,0.106,0.9-0.175,1.365-0.743c0.455-0.546,0.844-1.277,1.08-1.972
				c0.027-0.084,0.051-0.168,0.066-0.229c0.006-0.026,0.01-0.061,0.008-0.03c0.008,0.196,0.039,0.221,0.041,0.233
				c0.008-0.004-0.121-0.194-0.234-0.327c-0.244-0.298-0.539-0.612-0.83-0.925c-1.18-1.26-2.418-2.543-3.477-4.021l-0.051-0.069
				l-0.033-0.075c-1.002-2.36-1.109-4.941-0.781-7.354c0.318-2.43,1.014-4.768,1.984-6.995l0.045-0.106l0.129-0.142
				c0.205-0.226,0.639-0.361,0.916-0.312c0.285,0.035,0.465,0.13,0.605,0.211c0.285,0.17,0.461,0.34,0.637,0.51
				c0.338,0.338,0.609,0.677,0.873,1.018c0.518,0.684,0.98,1.373,1.451,2.052c0.467,0.68,0.922,1.362,1.387,2.003
				c0.229,0.313,0.475,0.638,0.686,0.851c0.045,0.045,0.098,0.086,0.086,0.074c-0.023-0.009-0.018-0.029-0.191-0.077
				c-0.146-0.07-0.611,0.042-0.754,0.261c-0.133,0.168-0.123,0.222-0.143,0.271c-0.014,0.113,0.012-0.103,0.002-0.039l0.016-0.3
				c0.184-3.194-0.125-6.401-1.021-9.389c-0.227-0.746-0.486-1.479-0.787-2.194c-0.303-0.711-0.633-1.448-0.992-2.035
				c-0.346-0.596-0.82-1.117-1.102-1.218c-0.141-0.055-0.156-0.038-0.236-0.013c-0.078,0.023-0.248,0.107-0.441,0.275
				c-0.395,0.33-0.818,0.9-1.182,1.51c-0.365,0.615-0.695,1.299-1,2.004c-0.604,1.403-1.117,2.943-1.537,4.399l-0.287,0.993
				l-1.074,0.272l-7.816,1.976l-7.838,1.873c-5.24,1.18-10.48,2.363-15.751,3.416c-5.268,1.063-10.531,2.16-15.834,3.093
				c-2.65,0.476-5.305,0.939-7.977,1.366c-1.336,0.217-2.676,0.416-4.037,0.578c-0.682,0.083-1.365,0.16-2.074,0.219
				c-0.355,0.029-0.715,0.054-1.105,0.065c-0.197,0.005-0.398,0.008-0.646-0.005c-0.127-0.007-0.252-0.014-0.453-0.046
				c-0.078-0.011-0.23-0.043-0.373-0.087c-0.08-0.023-0.238-0.088-0.348-0.146c-0.035-0.016-0.164-0.09-0.277-0.181
				c-0.111-0.087-0.213-0.187-0.301-0.291l-0.049-0.059l-0.039-0.059c-1.566-2.384-3.332-4.817-5.045-7.123
				c-1.682-2.216-3.74-4.183-6.211-4.909c-1.225-0.367-2.539-0.38-3.82-0.043c-1.287,0.338-2.523,0.996-3.672,1.814
				c-1.148,0.823-2.199,1.819-3.172,2.894C222.818,88.267,221.979,89.351,221.236,90.486z"/>
		</g>
		<g>
			<path d="M65.572,66.851c4.51-7.804,9.193-15.438,14.264-22.909c1.283-1.855,2.573-3.711,3.92-5.535
				c1.359-1.812,2.754-3.606,4.194-5.372c2.861-3.546,6.036-6.889,9.571-9.865c3.538-2.968,7.465-5.531,11.674-7.463
				c2.111-0.956,4.256-1.796,6.484-2.435c2.221-0.641,4.428-1.104,6.645-1.555c8.842-1.797,17.705-3.273,26.621-4.674
				c4.459-0.667,8.932-1.301,13.426-1.731c4.492-0.448,9-0.727,13.51-0.928c9.021-0.396,18.07-0.478,27.094,0.051
				c9.02,0.545,18.012,1.555,26.914,3.063c8.898,1.522,17.729,3.464,26.342,6.136l-0.102,0.489
				c-8.947-0.999-17.832-1.991-26.732-2.719c-8.898-0.737-17.791-1.283-26.689-1.636c-8.896-0.365-17.799-0.685-26.715-0.66
				c-4.457,0.012-8.914,0.109-13.375,0.208c-4.461,0.12-8.93,0.205-13.395,0.45c-8.924,0.453-17.867,1.432-26.543,3.524
				c-2.156,0.549-4.309,1.161-6.348,1.925c-2.02,0.809-3.99,1.789-5.844,2.928c-3.719,2.276-7.061,5.087-10.184,8.12
				C87.747,38.39,78.06,53.748,65.977,67.145L65.572,66.851z"/>
		</g>
		<g>
			<path d="M5.118,142.514c-0.613-3.489-0.888-7.004-1.05-10.521c-0.135-3.518-0.092-7.038,0.099-10.551
				c0.203-3.512,0.499-7.022,1.103-10.494c0.596-3.479,1.481-6.883,2.488-10.313l0.15-0.512l0.208-0.159l3.309-2.53
				c1.08-0.849,2.133-1.72,3.171-2.608c2.07-1.784,4.064-3.657,6.047-5.569c1.985-1.908,3.977-3.837,6.109-5.595
				c2.15-1.732,4.382-3.361,6.655-4.938c4.518-3.199,9.433-5.848,14.606-7.873c5.161-2.034,10.553-3.583,16.107-4.089l0.145,0.479
				c-4.85,2.676-9.595,5.159-14.254,7.804c-4.646,2.66-9.246,5.324-13.933,7.922c-2.333,1.317-4.623,2.715-6.924,4.109
				c-2.315,1.376-4.696,2.684-7.002,4.118c-4.608,2.841-8.887,6.339-12.121,10.658l0.358-0.671
				c-0.335,3.412-0.487,6.906-0.811,10.336c-0.306,3.441-0.762,6.862-1.166,10.297l-1.275,10.317
				c-0.471,3.447-0.905,6.904-1.52,10.387L5.118,142.514z"/>
		</g>
		<g>
			<path d="M321.077,66.766c-1.455-1.034-2.924-1.989-4.406-2.897c-1.498-0.886-2.998-1.742-4.547-2.491
				c-1.541-0.763-3.102-1.47-4.684-2.104c-1.557-0.626-3.225-1.237-4.717-1.646l-0.836-0.229l-0.461-0.866
				c-2.225-4.193-4.721-8.219-7.094-12.361c-2.404-4.12-4.875-8.291-7.924-12.027c-3.043-3.729-6.593-7.056-10.505-9.811
				c-1.959-1.368-4.008-2.595-6.102-3.607c-2.086-0.988-4.268-1.819-6.242-2.053c-2.086-0.215-3.053,0.239-4.094,1.761
				c-0.996,1.528-1.668,3.727-2.182,5.93c-0.988,4.481-1.637,9.25-2.385,13.997c-1.471,9.525-2.91,19.169-5.348,28.663l-0.498-0.054
				c-0.195-4.899-0.16-9.766-0.023-14.628c0.141-4.863,0.387-9.719,0.811-14.591c0.451-4.873,1.031-9.755,2.418-14.688
				c0.732-2.458,1.529-4.991,3.354-7.439c0.906-1.202,2.252-2.393,3.934-2.966c1.758-0.586,3.314-0.435,4.738-0.153
				c2.814,0.646,5.07,1.978,7.166,3.412c2.09,1.445,3.982,3.068,5.807,4.732c3.646,3.333,7.017,6.853,10.431,10.36
				c3.396,3.514,6.891,7.02,9.945,10.919c3.08,3.879,5.533,8.226,7.594,12.737l-1.295-1.095c1.875,0.667,3.473,1.429,5.115,2.303
				c1.613,0.875,3.172,1.844,4.65,2.919c1.467,1.089,2.893,2.231,4.186,3.514c1.311,1.256,2.504,2.638,3.545,4.105L321.077,66.766z"
				/>
		</g>
		<g>
			<path d="M83.18,66.748c2.788-0.491,5.576-0.818,8.363-1.081c2.788-0.286,5.576-0.471,8.363-0.616
				c2.789-0.144,5.576-0.238,8.364-0.277c2.788-0.06,5.575-0.024,8.364,0.139c5.574,0.324,11.15,1.128,16.727,1.279
				c5.576,0.174,11.152-0.098,16.727-0.562c2.789-0.21,5.576-0.483,8.365-0.638c2.787-0.173,5.574-0.262,8.363-0.356
				c5.576-0.184,11.15-0.386,16.727-0.307c5.576,0.093,11.152,0.319,16.727,0.702c5.576,0.394,11.152,0.866,16.729,1.719v0.5
				c-5.576,0.853-11.152,1.324-16.729,1.719c-5.574,0.382-11.15,0.608-16.727,0.701c-5.576,0.079-11.152-0.124-16.727-0.307
				c-2.789-0.094-5.576-0.184-8.363-0.357c-2.789-0.154-5.576-0.427-8.365-0.638c-5.574-0.464-11.15-0.736-16.727-0.563
				c-5.576,0.151-11.152,0.955-16.727,1.279c-2.789,0.163-5.576,0.198-8.364,0.139c-2.788-0.039-5.575-0.134-8.364-0.277
				c-2.787-0.146-5.575-0.331-8.363-0.617c-2.787-0.263-5.575-0.59-8.363-1.081V66.748z"/>
		</g>
	</g>
	<g id="Auto_1_">
		<g>
			<path fill="#F4981A" d="M219.621,89.497c1.311-2.7,3.025-5.222,5.336-7.294c1.152-1.03,2.5-1.916,4.039-2.468
				c1.537-0.558,3.283-0.708,4.934-0.364c1.658,0.332,3.158,1.119,4.463,2.055c1.307,0.945,2.447,2.064,3.471,3.229
				c1.998,2.298,3.791,4.592,5.615,7.052l-0.086-0.117c-0.072-0.092-0.158-0.178-0.252-0.252c-0.1-0.077-0.211-0.137-0.227-0.146
				c-0.068-0.042-0.189-0.086-0.23-0.098c-0.061-0.023-0.133-0.034-0.127-0.036c-0.035-0.006,0.008-0.003,0.049-0.005
				c0.086-0.001,0.221-0.008,0.357-0.02c0.279-0.023,0.59-0.06,0.9-0.102c0.627-0.084,1.271-0.191,1.918-0.304l3.906-0.73
				c2.613-0.509,5.232-1.059,7.848-1.621l15.707-3.411c5.229-1.18,10.479-2.273,15.724-3.398l7.885-1.606l7.896-1.549l-1.361,1.265
				c0.574-1.669,1.23-3.202,2.023-4.768c0.4-0.776,0.836-1.546,1.363-2.308c0.535-0.755,1.121-1.511,2.031-2.185
				c0.455-0.327,1.027-0.649,1.76-0.77c0.725-0.137,1.566,0.049,2.137,0.394c1.166,0.708,1.658,1.612,2.109,2.427
				c0.439,0.847,0.725,1.637,1.016,2.453c0.281,0.817,0.52,1.65,0.715,2.489c0.787,3.365,0.834,6.8,0.551,10.14l-0.029,0.314
				c-0.02,0.166,0,0.053-0.039,0.265c-0.039,0.149-0.066,0.301-0.264,0.55c-0.115,0.132-0.281,0.265-0.5,0.327
				c-0.209,0.066-0.406,0.045-0.529,0.02c-0.275-0.066-0.359-0.145-0.467-0.208c-0.18-0.129-0.275-0.232-0.373-0.333
				c-0.348-0.389-0.578-0.736-0.82-1.092c-0.471-0.707-0.898-1.406-1.334-2.097c-0.432-0.691-0.873-1.37-1.342-1.998
				c-0.232-0.313-0.475-0.616-0.713-0.86c-0.115-0.118-0.244-0.229-0.313-0.268c-0.033-0.026-0.047-0.015,0.033-0.004
				c0.076,0.023,0.295-0.048,0.354-0.126l0.174-0.248c-0.934,2.08-1.643,4.294-1.939,6.541c-0.283,2.239-0.141,4.54,0.734,6.534
				l-0.082-0.145c0.969,1.343,2.168,2.548,3.402,3.772c0.309,0.313,0.617,0.622,0.936,0.984c0.16,0.2,0.316,0.346,0.51,0.735
				c0.043,0.112,0.115,0.24,0.107,0.547c-0.006,0.139-0.021,0.212-0.035,0.291c-0.031,0.151-0.064,0.276-0.1,0.4
				c-0.299,0.953-0.709,1.792-1.334,2.605c-0.316,0.398-0.697,0.788-1.209,1.095c-0.504,0.308-1.193,0.5-1.852,0.406
				c-1.336-0.217-2.117-1.058-2.746-1.772c-1.213-1.418-2.098-3.063-2.859-4.66l1.422,0.636
				c-9.895,3.433-19.721,7.082-29.581,10.596l-14.779,5.276c-4.91,1.767-9.854,3.539-14.611,5.47
				c-0.59,0.242-1.174,0.489-1.732,0.74l-0.795,0.375l-0.324,0.172c-0.072,0.037-0.188,0.124-0.051,0.025l0.074-0.063
				c0.031-0.028,0.123-0.116,0.174-0.18c-0.014,0.023,0.127-0.164,0.096-0.123l-0.018,0.024l-0.035,0.051
				c-0.049,0.068-0.104,0.145-0.098,0.146l-0.129,0.227c-0.113,0.209-0.232,0.458-0.35,0.716c-0.238,0.529-0.477,1.111-0.717,1.708
				c-0.955,2.407-1.988,4.976-3.299,7.428c-0.654,1.23-1.375,2.44-2.184,3.602c-0.785,1.149-1.752,2.354-2.787,3.393
				c-2.094,2.089-4.703,3.946-8,4.683c-1.631,0.354-3.424,0.368-5.102-0.066c-1.678-0.432-3.191-1.256-4.453-2.246
				c-2.525-2.005-4.164-4.541-5.457-7.04c-1.328-2.667-2.115-5.274-2.838-7.865c-0.695-2.59-1.295-5.148-1.906-7.693l-1.068-4.443
				l4.182,1.65c2.475,0.977,4.975,1.938,7.471,2.871c2.49,0.94,4.996,1.879,7.473,2.688l0.463,0.147l0.057,0.019
				c-0.037-0.01,0.104,0.027-0.078-0.02l0.016,0.004l0.029,0.008l0.063,0.016l-0.053-0.013c-0.125-0.017-0.066-0.005-0.074-0.006
				c0.037,0.012,0.232-0.004,0.42-0.053c0.393-0.096,0.838-0.299,1.184-0.538c0.354-0.237,0.604-0.522,0.695-0.712
				c0.029-0.059,0.033-0.066,0.061-0.152l0.125-0.487l0.254-0.977c0.68-2.598,1.355-5.181,1.965-7.768
				c0.6-2.586,1.178-5.177,1.539-7.751c0.088-0.643,0.16-1.284,0.205-1.916c0.063-0.369-0.072-0.855-0.291-1.41
				c-0.439-1.059-1.141-2.224-1.891-2.97c-0.852-0.73-2.051-1.46-3.17-2.104c-1.146-0.654-2.328-1.27-3.521-1.864
				c-2.395-1.175-4.824-2.314-7.279-3.388l-0.252-0.11L219.621,89.497z M220.236,89.486c2.469,0.771,4.918,1.596,7.332,2.547
				c1.258,0.493,2.51,1.009,3.752,1.578c1.256,0.594,2.439,1.134,3.717,2.04c1.244,1.055,2.035,2.191,2.736,3.55
				c0.168,0.343,0.322,0.702,0.447,1.106c0.061,0.203,0.117,0.414,0.152,0.654c0.045,0.271,0.047,0.557,0.045,0.703
				c0.002,0.708-0.027,1.405-0.07,2.098c-0.186,2.765-0.586,5.458-1.053,8.129c-0.465,2.67-0.992,5.318-1.514,7.949l-0.195,0.985
				l-0.1,0.493c-0.051,0.24-0.141,0.555-0.248,0.803c-0.439,1.051-1.143,1.779-1.859,2.338c-0.732,0.558-1.506,0.964-2.402,1.243
				c-0.455,0.135-0.928,0.248-1.559,0.255c-0.178-0.004-0.287,0.001-0.576-0.043l-0.238-0.044l-0.219-0.055l-0.504-0.135
				c-5.297-1.483-10.346-3.241-15.447-5.048l3.113-2.793c0.697,2.526,1.379,5.047,2.127,7.493c0.736,2.432,1.539,4.847,2.596,6.853
				c1.129,2.118,2.508,4.024,4.137,5.252c1.633,1.229,3.365,1.645,5.215,1.259c1.855-0.39,3.756-1.614,5.342-3.211
				c1.586-1.57,2.902-3.628,4.125-5.755c1.209-2.145,2.191-4.422,3.223-6.858c0.262-0.613,0.531-1.238,0.846-1.896
				c0.162-0.333,0.332-0.672,0.539-1.035c0.111-0.187,0.207-0.357,0.381-0.612l0.184-0.256l0.189-0.243
				c0.08-0.093,0.199-0.213,0.26-0.268l0.17-0.143c0.393-0.302,0.564-0.376,0.777-0.499c0.201-0.108,0.373-0.191,0.549-0.276
				c0.346-0.163,0.67-0.305,0.992-0.441c0.643-0.272,1.27-0.521,1.896-0.763c9.967-3.707,19.904-6.878,29.928-10.02
				c10.015-3.113,20.103-5.978,30.149-8.975l1.029-0.307l0.391,0.943c0.648,1.563,1.355,3.041,2.34,4.316
				c0.443,0.606,0.998,1.084,1.412,1.153c0.373,0.106,0.9-0.175,1.365-0.743c0.455-0.546,0.844-1.277,1.08-1.972
				c0.027-0.084,0.051-0.168,0.066-0.229c0.006-0.026,0.01-0.061,0.008-0.03c0.008,0.196,0.039,0.221,0.041,0.233
				c0.008-0.004-0.121-0.194-0.234-0.327c-0.244-0.298-0.539-0.612-0.83-0.925c-1.18-1.26-2.418-2.543-3.477-4.021l-0.051-0.069
				l-0.033-0.075c-1.002-2.36-1.109-4.942-0.781-7.354c0.318-2.43,1.014-4.768,1.984-6.996l0.045-0.107l0.129-0.141
				c0.205-0.226,0.639-0.362,0.916-0.312c0.285,0.035,0.465,0.13,0.605,0.21c0.285,0.17,0.461,0.34,0.637,0.509
				c0.338,0.338,0.609,0.677,0.873,1.018c0.518,0.684,0.98,1.373,1.451,2.052c0.467,0.68,0.922,1.362,1.387,2.003
				c0.229,0.313,0.475,0.638,0.686,0.85c0.045,0.045,0.098,0.087,0.086,0.074c-0.023-0.008-0.018-0.029-0.191-0.076
				c-0.146-0.07-0.611,0.041-0.754,0.261c-0.133,0.167-0.123,0.221-0.143,0.27c-0.014,0.113,0.012-0.103,0.002-0.039l0.016-0.3
				c0.184-3.194-0.125-6.401-1.021-9.389c-0.227-0.746-0.486-1.479-0.787-2.194c-0.303-0.711-0.633-1.448-0.992-2.035
				c-0.346-0.596-0.82-1.117-1.102-1.218c-0.141-0.055-0.156-0.038-0.236-0.013c-0.078,0.023-0.248,0.107-0.441,0.275
				c-0.395,0.33-0.818,0.9-1.182,1.51c-0.365,0.615-0.695,1.299-1,2.004c-0.604,1.403-1.117,2.943-1.537,4.398l-0.287,0.994
				l-1.074,0.271l-7.816,1.976l-7.838,1.874c-5.24,1.18-10.48,2.363-15.751,3.416c-5.268,1.063-10.531,2.161-15.834,3.093
				c-2.65,0.476-5.305,0.939-7.977,1.367c-1.336,0.216-2.676,0.415-4.037,0.578c-0.682,0.083-1.365,0.16-2.074,0.219
				c-0.355,0.029-0.715,0.054-1.105,0.065c-0.197,0.005-0.398,0.008-0.646-0.004c-0.127-0.007-0.252-0.013-0.453-0.046
				c-0.078-0.01-0.23-0.043-0.373-0.087c-0.08-0.023-0.238-0.087-0.348-0.145c-0.035-0.016-0.164-0.09-0.277-0.181
				c-0.111-0.087-0.213-0.187-0.301-0.292l-0.049-0.058l-0.039-0.059c-1.566-2.384-3.332-4.817-5.045-7.123
				c-1.682-2.216-3.74-4.183-6.211-4.91c-1.225-0.367-2.539-0.38-3.82-0.042c-1.287,0.338-2.523,0.996-3.672,1.815
				c-1.148,0.823-2.199,1.818-3.172,2.893C221.818,87.268,220.979,88.351,220.236,89.486z"/>
		</g>
		<g>
			<path fill="#F4981A" d="M64.572,65.851c4.51-7.804,9.193-15.438,14.264-22.909c1.283-1.855,2.573-3.711,3.92-5.535
				c1.359-1.812,2.754-3.606,4.194-5.372c2.861-3.546,6.036-6.889,9.571-9.865c3.538-2.968,7.465-5.531,11.674-7.463
				c2.111-0.956,4.257-1.796,6.483-2.435c2.222-0.641,4.429-1.104,6.646-1.555c8.842-1.797,17.705-3.273,26.621-4.674
				c4.459-0.667,8.933-1.301,13.426-1.731c4.492-0.448,9-0.727,13.51-0.928c9.021-0.396,18.07-0.478,27.094,0.051
				c9.02,0.545,18.012,1.555,26.914,3.063c8.898,1.522,17.729,3.464,26.342,6.136l-0.102,0.489
				c-8.947-0.999-17.832-1.991-26.732-2.719c-8.898-0.737-17.791-1.283-26.689-1.636c-8.896-0.365-17.799-0.685-26.715-0.66
				c-4.457,0.012-8.914,0.109-13.375,0.208c-4.46,0.12-8.93,0.205-13.395,0.45c-8.924,0.453-17.867,1.432-26.543,3.524
				c-2.156,0.549-4.31,1.161-6.348,1.925c-2.02,0.809-3.989,1.789-5.844,2.928c-3.719,2.276-7.061,5.087-10.184,8.12
				C86.747,37.39,77.06,52.748,64.977,66.145L64.572,65.851z"/>
		</g>
		<g>
			<path fill="#F4981A" d="M4.118,141.514c-0.613-3.489-0.888-7.004-1.05-10.521c-0.135-3.518-0.092-7.038,0.099-10.551
				c0.203-3.512,0.499-7.022,1.103-10.494c0.596-3.479,1.481-6.883,2.488-10.313l0.15-0.512l0.208-0.159l3.309-2.53
				c1.08-0.849,2.133-1.72,3.171-2.608c2.07-1.784,4.064-3.657,6.047-5.569c1.985-1.908,3.977-3.837,6.109-5.595
				c2.15-1.731,4.382-3.36,6.655-4.938c4.518-3.199,9.432-5.848,14.606-7.873c5.161-2.034,10.553-3.583,16.107-4.089l0.145,0.479
				c-4.85,2.676-9.595,5.159-14.254,7.804c-4.646,2.66-9.246,5.324-13.933,7.922c-2.333,1.317-4.623,2.715-6.924,4.109
				c-2.315,1.375-4.696,2.684-7.002,4.118c-4.608,2.841-8.887,6.339-12.121,10.658l0.358-0.671
				c-0.335,3.412-0.487,6.906-0.811,10.336c-0.306,3.441-0.762,6.862-1.166,10.297l-1.275,10.317
				c-0.471,3.447-0.905,6.904-1.52,10.387L4.118,141.514z"/>
		</g>
		<g>
			<path fill="#F4981A" d="M320.077,65.766c-1.455-1.034-2.924-1.989-4.406-2.897c-1.498-0.886-2.998-1.742-4.547-2.491
				c-1.541-0.763-3.102-1.47-4.684-2.104c-1.557-0.626-3.225-1.237-4.717-1.646l-0.836-0.229l-0.461-0.866
				c-2.225-4.193-4.721-8.219-7.094-12.361c-2.404-4.12-4.875-8.291-7.924-12.027c-3.043-3.729-6.593-7.056-10.505-9.811
				c-1.959-1.368-4.008-2.595-6.102-3.607c-2.086-0.988-4.268-1.819-6.242-2.053c-2.086-0.215-3.053,0.239-4.094,1.761
				c-0.996,1.528-1.668,3.727-2.182,5.93c-0.988,4.481-1.637,9.25-2.385,13.997c-1.471,9.525-2.91,19.169-5.348,28.663l-0.498-0.054
				c-0.195-4.899-0.16-9.766-0.023-14.628c0.141-4.863,0.387-9.719,0.811-14.591c0.451-4.873,1.031-9.755,2.418-14.688
				c0.732-2.458,1.529-4.991,3.354-7.439c0.906-1.202,2.252-2.393,3.934-2.966c1.758-0.586,3.314-0.435,4.738-0.153
				c2.814,0.646,5.07,1.978,7.166,3.412c2.09,1.445,3.982,3.068,5.807,4.732c3.646,3.333,7.017,6.853,10.431,10.36
				c3.396,3.514,6.891,7.02,9.945,10.919c3.08,3.879,5.533,8.226,7.594,12.737l-1.295-1.095c1.875,0.667,3.473,1.429,5.115,2.303
				c1.613,0.875,3.172,1.844,4.65,2.919c1.467,1.089,2.893,2.231,4.186,3.514c1.311,1.256,2.504,2.638,3.545,4.105L320.077,65.766z"
				/>
		</g>
		<g>
			<path fill="#F4981A" d="M82.18,65.748c2.788-0.491,5.576-0.818,8.363-1.081c2.788-0.286,5.576-0.471,8.363-0.616
				c2.789-0.144,5.576-0.238,8.364-0.277c2.788-0.06,5.575-0.024,8.364,0.139c5.575,0.324,11.15,1.128,16.727,1.279
				c5.576,0.174,11.151-0.098,16.727-0.562c2.789-0.21,5.576-0.483,8.364-0.638c2.788-0.173,5.575-0.262,8.364-0.356
				c5.576-0.184,11.15-0.386,16.727-0.307c5.576,0.093,11.152,0.319,16.727,0.702c5.576,0.394,11.152,0.866,16.729,1.719v0.5
				c-5.576,0.853-11.152,1.324-16.729,1.719c-5.574,0.382-11.15,0.608-16.727,0.701c-5.576,0.079-11.152-0.124-16.727-0.307
				c-2.789-0.094-5.576-0.184-8.364-0.357c-2.788-0.154-5.575-0.427-8.364-0.638c-5.575-0.464-11.15-0.736-16.727-0.563
				c-5.576,0.151-11.151,0.955-16.727,1.279c-2.789,0.163-5.576,0.198-8.364,0.139c-2.788-0.039-5.575-0.134-8.364-0.277
				c-2.787-0.146-5.575-0.331-8.363-0.617c-2.787-0.263-5.575-0.59-8.363-1.081V65.748z"/>
		</g>
	</g>
	<rect x="8.785" y="101.247" fill="none" width="202" height="30.779"/>
	<text transform="matrix(1 0 0 1 18.5298 125.4546)" fill="#F4981A" font-family="'MinionPro-Regular'" font-size="34">KFZ - MWM</text>
	<rect x="3.368" y="141.515" fill="none" width="211.109" height="16"/>
	<text transform="matrix(1 0 0 1 11.9146 155.7554)" fill="#F4981A" font-family="'MinionPro-Regular'" font-size="20">Meisterwerkstatt Müller</text>
</g>
</svg>
